<?xml version="1.0" encoding="utf-8"?>
<!-- Generator: Adobe Illustrator 27.4.0, SVG Export Plug-In . SVG Version: 6.00 Build 0)  -->
<svg version="1.1" id="Layer_1" xmlns="http://www.w3.org/2000/svg" xmlns:xlink="http://www.w3.org/1999/xlink" x="0px" y="0px"
	 viewBox="0 0 70 70" style="enable-background:new 0 0 70 70;" xml:space="preserve">
<style type="text/css">
	.st0{fill:#FF0059;}
	.st1{fill:none;stroke:#FFFFFF;stroke-width:4;}
</style>
<path class="st0" d="M48.4,23.7c-0.8-0.8-1.8-1.4-2.8-1.9c-1-0.4-2.2-0.7-3.3-0.7S40,21.3,39,21.8c-1,0.4-2,1.1-2.8,1.9l-1.7,1.7
	l-1.7-1.7c-1.6-1.6-3.8-2.5-6.1-2.5s-4.5,0.9-6.1,2.5s-2.5,3.8-2.5,6.1s0.9,4.5,2.5,6.1l1.7,1.7l12.2,12.2l12.2-12.2l1.7-1.7
	c0.8-0.8,1.4-1.8,1.9-2.8c0.4-1,0.7-2.2,0.7-3.3s-0.2-2.3-0.7-3.3C49.8,25.5,49.2,24.5,48.4,23.7z"/>
<circle class="st1" cx="35" cy="35" r="33"/>
</svg>
