<?xml version="1.0" encoding="utf-8"?>
<!-- Generator: Adobe Illustrator 27.4.0, SVG Export Plug-In . SVG Version: 6.00 Build 0)  -->
<svg version="1.1" id="Layer_1" xmlns="http://www.w3.org/2000/svg" xmlns:xlink="http://www.w3.org/1999/xlink" x="0px" y="0px"
	 viewBox="0 0 196.7 71.4" style="enable-background:new 0 0 196.7 71.4;" xml:space="preserve">
<style type="text/css">
	.st0{fill:none;stroke:#FFFFFF;stroke-width:4;}
	.st1{fill:none;}
</style>
<circle class="st0" cx="35" cy="-40.4" r="33"/>
<g>
	<path class="st1" d="M45.6-52.2c-1.4-7-8.3-9.3-12.9-6.6c-4.4,4.1-4.3,6.8-0.5,10.9c3.3,4.1,7.3,7,11.3,10.5
		c5,5.1,3.9,14.8-2.1,18.6c-8,5.5-19.2-0.3-18.7-10h0.4c0.6,6,6.5,10.8,12.5,9.3c8-1.5,10.2-12.1,3.5-16.7c-3.6-2.6-7-5.8-9.8-9.3
		c-3.3-3.7-4.9-8.3-1.5-12.6c4.1-6.2,13.5-5.8,17,0.8c0.8,1.5,1.3,3.3,1.3,5C46-52.2,45.6-52.2,45.6-52.2L45.6-52.2z"/>
</g>
<g>
	<path class="st1" d="M38.5-38c-8,2.6-14.5,8.8-18.2,16.3L19.1-22c-0.3-10-0.4-23.8-0.6-34c0.8,0.3,10.2,4,11.2,4.4
		c9.6,3.7,19.2,7.5,28.4,12l-0.7,2.1C51.5-39.6,44.7-40,38.5-38L38.5-38z M38.4-38.3c6.3-2.2,13.1-2.7,19.7-1.3l-0.7,2.1
		c-6.5-2.2-12.9-4.8-19.2-7.5c-5.5-2.3-13.3-5.8-18.9-8.2l1.6-1.1l-0.2,16.1c-0.1,5.4-0.1,10.7-0.3,16.1l-1.2-0.3
		C23.4-29.8,30.4-35.5,38.4-38.3L38.4-38.3z"/>
</g>
<rect x="76.8" y="-53.2" class="st1" width="113.6" height="47.8"/>
<text transform="matrix(1 0 0 1 76.8404 -27.0606)" class="st1" style="font-family:'Impact'; font-size:33px;">STREAM</text>
<text transform="matrix(1 0 0 1 76.8404 -27.0606)" style="fill:none;stroke:#FFFFFF; font-family:'Impact'; font-size:33px;">STREAM</text>
<image style="overflow:visible;" width="1559" height="478" xlink:href="stream_logo_white.png"  transform="matrix(0.1183 0 0 0.1183 6.1736 7.4545)">
</image>
</svg>
